#!OML:ASF H:\Punching\Project 1\Capture day 1\Session 1\female.ASF
:FULLY-SPECIFIED
:DEGREES
1779
root 1.6819 15.7155 8.29733 14.1678 10.0093 -2.59944
lowerback -1.96421 0.671071 1.43572
upperback -5.92167 0.995417 1.55585
thorax -5.01961 0.479055 0.781193
lowerneck -11.5 0.150406 6.70065
upperneck 26.2835 -0.541021 -2.66542
head 10.2518 0.129302 -2.15164
rclavicle -1.29769e-014 -1.11319e-014
rhumerus -38.3874 11.9365 -66.9812
rradius 81.2642
rwrist -14.8148
rhand -12.7559 -7.05313
rfingers 7.12502
rthumb 13.3285 -36.6069
lclavicle -1.29769e-014 -1.11319e-014
lhumerus -34.8165 -24.761 77.8608
lradius 79.8729
lwrist 6.3593
lhand -13.2475 13.3583
lfingers 7.12502
lthumb 12.8546 42.9425
rfemur -29.8396 11.7371 -0.0730866
rtibia 18.4571
rfoot 0.389012 -26.3271
rtoes -5.01906
lfemur -9.62725 -11.579 -13.4562
ltibia 16.8231
lfoot -18.3926 12.8002
ltoes -7.82937
1780
root 1.74353 15.7217 8.24118 14.1441 9.38834 -2.57288
lowerback -1.90656 0.648201 1.35446
upperback -5.88764 0.964939 1.59471
thorax -5.01832 0.468159 0.867061
lowerneck -11.5162 0.309104 6.90847
upperneck 26.2302 -0.309767 -2.88196
head 10.2468 0.228753 -2.23631
rclavicle 4.48073e-014 2.98177e-015
rhumerus -39.5975 11.5881 -67.6588
rradius 80.4772
rwrist -14.4282
rhand -12.6944 -6.9162
rfingers 7.12502
rthumb 13.3878 -36.4661
lclavicle 4.48073e-014 2.98177e-015
lhumerus -35.5031 -24.3145 78.1949
lradius 77.9353
lwrist 5.43799
lhand -13.2225 13.3762
lfingers 7.12502
lthumb 12.8787 42.9589
rfemur -29.6898 10.5284 0.815036
rtibia 19.1892
rfoot -0.41855 -24.9009
rtoes -5.12285
lfemur -9.76946 -11.4457 -13.8792
ltibia 17.0969
lfoot -18.4348 13.1051
ltoes -7.21938
1781
root 1.80367 15.7258 8.1866 14.0784 8.71642 -2.5652
lowerback -1.81295 0.641885 1.31154
upperback -5.84207 0.95698 1.61917
thorax -5.02456 0.466236 0.915668
lowerneck -11.5408 0.478966 7.14082
upperneck 26.1859 -0.0660501 -3.10976
head 10.2487 0.335244 -2.32789
rclavicle -2.97556e-014 2.18663e-015
rhumerus -40.7444 11.1684 -68.3732
rradius 79.686
rwrist -14.0791
rhand -12.5085 -6.86153
rfingers 7.12502
rthumb 13.5669 -36.3995
lclavicle -2.97556e-014 2.18663e-015
lhumerus -36.1981 -23.7941 78.5181
lradius 75.9905
lwrist 4.34331
lhand -13.0915 13.37
lfingers 7.12502
lthumb 13.005 42.9447
rfemur -29.5126 9.20151 1.81337
rtibia 20.0332
rfoot -1.28934 -23.3168
rtoes -5.27691
lfemur -9.85622 -11.2938 -14.2897
ltibia 17.381
lfoot -18.5059 13.4354
ltoes -6.65572
1782
root 1.86217 15.7279 8.13283 14.0035 7.99097 -2.57832
lowerback -1.71088 0.65197 1.30296
upperback -5.79047 0.970916 1.63139
thorax -5.02871 0.473299 0.931756
lowerneck -11.5893 0.659659 7.39382
upperneck 26.1487 0.187259 -3.34177
head 10.2599 0.447688 -2.42358
rclavicle -2.8507e-014 -1.05356e-014
rhumerus -41.8105 10.6913 -69.1149
rradius 78.8785
rwrist -13.7699
rhand -12.2075 -6.79642
rfingers 7.12502
rthumb 13.857 -36.3148
lclavicle -2.8507e-014 -1.05356e-014
lhumerus -36.8794 -23.2139 78.8262
lradius 74.0435
lwrist 3.25141
lhand -12.9098 13.3416
lfingers 7.12502
lthumb 13.1802 42.905
rfemur -29.3532 7.80318 2.87747
rtibia 20.981
rfoot -2.26276 -21.6549
rtoes -5.53541
lfemur -9.93985 -11.1054 -14.678
ltibia 17.7004
lfoot -18.619 13.7743
ltoes -6.13908
1783
root 1.91896 15.7283 8.07986 13.926 7.22854 -2.62187
lowerback -1.60417 0.675929 1.34228
upperback -5.74065 1.00386 1.6332
thorax -5.03661 0.48735 0.909656
lowerneck -11.623 0.848978 7.66391
upperneck 26.0923 0.448503 -3.56909
head 10.2633 0.56567 -2.51908
rclavicle -1.17407e-014 -2.78299e-015
rhumerus -42.8001 10.1691 -69.8863
rradius 78.0382
rwrist -13.4919
rhand -11.8513 -6.75839
rfingers 7.12502
rthumb 14.2002 -36.253
lclavicle -1.17407e-014 -2.78299e-015
lhumerus -37.5655 -22.5893 79.1249
lradius 72.1341
lwrist 2.29727
lhand -12.6815 13.3376
lfingers 7.12502
lthumb 13.4002 42.8866
rfemur -29.221 6.3944 3.97968
rtibia 22.0335
rfoot -3.33886 -20.0087
rtoes -5.92714
lfemur -10.0393 -10.8795 -15.0267
ltibia 18.0664
lfoot -18.7816 14.0979
ltoes -5.62399
1784
root 1.97407 15.727 8.02784 13.8625 6.43356 -2.68664
lowerback -1.51275 0.709458 1.41571
upperback -5.69108 1.0494 1.62453
thorax -5.03535 0.505899 0.857381
lowerneck -11.6432 1.04488 7.95238
upperneck 26.0056 0.713908 -3.7908
head 10.2551 0.687459 -2.61453
rclavicle 1.84373e-014 -3.29983e-014
rhumerus -43.6987 9.62074 -70.6888
rradius 77.1456
rwrist -13.2072
rhand -11.5028 -6.67447
rfingers 7.12502
rthumb 14.5361 -36.1452
lclavicle 1.84373e-014 -3.29983e-014
lhumerus -38.2586 -21.9228 79.4176
lradius 70.3061
lwrist 1.58643
lhand -12.4542 13.4001
lfingers 7.12502
lthumb 13.6193 42.9346
rfemur -29.1342 5.009 5.08192
rtibia 23.1914
rfoot -4.47926 -18.4192
rtoes -6.46139
lfemur -10.1704 -10.6163 -15.3433
ltibia 18.4773
lfoot -18.9878 14.4016
ltoes -5.11092
1785
root 2.02739 15.7245 7.97715 13.8168 5.62354 -2.76762
lowerback -1.44267 0.746763 1.51927
upperback -5.6462 1.09975 1.60609
thorax -5.02609 0.525292 0.778203
lowerneck -11.6364 1.24639 8.23955
upperneck 25.8879 0.982841 -3.98825
head 10.2324 0.813115 -2.69989
rclavicle -6.85807e-015 -1.17283e-014
rhumerus -44.5157 9.06647 -71.5264
rradius 76.1921
rwrist -12.8863
rhand -11.246 -6.51911
rfingers 7.12502
rthumb 14.7835 -35.9718
lclavicle -6.85807e-015 -1.17283e-014
lhumerus -38.9817 -21.2251 79.7169
lradius 68.6098
lwrist 1.20357
lhand -12.253 13.5883
lfingers 7.12502
lthumb 13.8132 43.1097
rfemur -29.0884 3.69308 6.1562
rtibia 24.45
rfoot -5.64522 -16.9319
rtoes -7.11727
lfemur -10.3314 -10.3292 -15.6289
ltibia 18.9179
lfoot -19.2264 14.681
ltoes -4.60302
1786
root 2.07872 15.7211 7.92829 13.7909 4.79927 -2.85729
lowerback -1.39719 0.786361 1.63913
upperback -5.60839 1.15262 1.57768
thorax -5.00959 0.545046 0.679793
lowerneck -11.5905 1.45184 8.52305
upperneck 25.7338 1.25372 -4.15784
head 10.1905 0.942132 -2.77358
rclavicle 2.30466e-014 9.54166e-015
rhumerus -45.2628 8.51923 -72.404
rradius 75.1837
rwrist -12.4934
rhand -11.1183 -6.31888
rfingers 7.12502
rthumb 14.9066 -35.7625
lclavicle 2.30466e-014 9.54166e-015
lhumerus -39.7534 -20.5111 80.0356
lradius 67.0721
lwrist 1.18332
lhand -12.153 13.871
lfingers 7.12502
lthumb 13.9096 43.3858
rfemur -29.0773 2.48177 7.17974
rtibia 25.7979
rfoot -6.80211 -15.5658
rtoes -7.83369
lfemur -10.5122 -10.0279 -15.8929
ltibia 19.3681
lfoot -19.4809 14.9529
ltoes -4.10766
1787
root 2.12812 15.717 7.88215 13.7693 3.98658 -2.94526
lowerback -1.37316 0.818792 1.76853
upperback -5.57131 1.19518 1.54101
thorax -4.98106 0.559155 0.568107
lowerneck -11.5129 1.66057 8.79848
upperneck 25.5545 1.52783 -4.30538
head 10.1351 1.07423 -2.83707
rclavicle -9.80257e-015 1.03368e-014
rhumerus -45.9514 7.9898 -73.3174
rradius 74.1404
rwrist -12.0085
rhand -11.0995 -6.12466
rfingers 7.12502
rthumb 14.9247 -35.567
lclavicle -9.80257e-015 1.03368e-014
lhumerus -40.5779 -19.7741 80.3797
lradius 65.707
lwrist 1.50483
lhand -12.1427 14.2803
lfingers 7.12502
lthumb 13.9195 43.7944
rfemur -29.0615 1.38308 8.13844
rtibia 27.2157
rfoot -7.92105 -14.3354
rtoes -8.58131
lfemur -10.688 -9.74159 -16.1457
ltibia 19.8104
lfoot -19.741 15.2278
ltoes -3.62101
1788
root 2.17506 15.7126 7.83868 13.7644 3.18177 -3.02675
lowerback -1.37704 0.846762 1.89253
upperback -5.54135 1.23074 1.49694
thorax -4.9439 0.569981 0.452437
lowerneck -11.4062 1.86788 9.06079
upperneck 25.3561 1.79972 -4.43079
head 10.0683 1.20656 -2.89038
rclavicle -1.0871e-015 1.37161e-014
rhumerus -46.5946 7.47563 -74.2607
rradius 73.0763
rwrist -11.4318
rhand -11.155 -5.9304
rfingers 7.12502
rthumb 14.8712 -35.3767
lclavicle -1.0871e-015 1.37161e-014
lhumerus -41.4526 -19.0186 80.7504
lradius 64.5081
lwrist 2.12123
lhand -12.2296 14.776
lfingers 7.12502
lthumb 13.8357 44.2959
rfemur -29.0485 0.414834 9.02056
rtibia 28.6839
rfoot -8.9794 -13.244
rtoes -9.28061
lfemur -10.865 -9.47238 -16.3906
ltibia 20.2284
lfoot -19.994 15.5199
ltoes -3.13453
1789
root 2.21925 15.7084 7.79775 13.7748 2.39195 -3.10555
lowerback -1.40674 0.869392 2.00962
upperback -5.51751 1.25828 1.45094
thorax -4.89847 0.577227 0.339277
lowerneck -11.2793 2.07401 9.31047
upperneck 25.1459 2.07196 -4.54526
head 9.99449 1.33921 -2.93753
rclavicle -9.00743e-015 -2.52457e-014
rhumerus -47.2064 6.97655 -75.2244
rradius 72.0244
rwrist -10.8091
rhand -11.2476 -5.75265
rfingers 7.12502
rthumb 14.7819 -35.2055
lclavicle -9.00743e-015 -2.52457e-014
lhumerus -42.3626 -18.2403 81.1441
lradius 63.4421
lwrist 2.93616
lhand -12.3889 15.3138
lfingers 7.12502
lthumb 13.6823 44.844
rfemur -29.0269 -0.42089 9.83196
rtibia 30.1808
rfoot -9.96945 -12.2943
rtoes -9.87801
lfemur -11.0405 -9.22407 -16.6225
ltibia 20.6117
lfoot -20.2291 15.8372
ltoes -2.65491
